<svg id="Group_2205" data-name="Group 2205" xmlns="http://www.w3.org/2000/svg" xmlns:xlink="http://www.w3.org/1999/xlink" width="165.812" height="210" viewBox="0 0 165.812 210">
  <defs>
    <clipPath id="clip-path">
      <rect id="Rectangle_1152" data-name="Rectangle 1152" width="165.812" height="210" fill="none"/>
    </clipPath>
  </defs>
  <g id="Group_2204" data-name="Group 2204" clip-path="url(#clip-path)">
    <path id="Path_1193" data-name="Path 1193" d="M105.865,58.625V58.8A23.732,23.732,0,0,0,89.5,81.342v3.113H63.223V52.292a19.8,19.8,0,0,1,19.8-19.8H86.06a19.694,19.694,0,0,1,11.666,3.8,17.762,17.762,0,0,0,8.139,22.332" fill="#232323"/>
    <path id="Path_1194" data-name="Path 1194" d="M97.918,13.883A13.883,13.883,0,1,1,84.035,0,13.883,13.883,0,0,1,97.918,13.883" fill="#232323"/>
    <path id="Path_1195" data-name="Path 1195" d="M165.813,52.292V84.455H139.938v-3.11a23.749,23.749,0,0,0-16.763-22.671v-.385a17.761,17.761,0,0,0,7.668-21.644,19.687,19.687,0,0,1,12.131-4.152h3.039a19.8,19.8,0,0,1,19.8,19.795Z" fill="#232323"/>
    <path id="Path_1196" data-name="Path 1196" d="M126.422,49.557c-.214.39-.45.775-.7,1.143.248-.368.478-.748.7-1.143" fill="#242424"/>
    <path id="Path_1197" data-name="Path 1197" d="M157.871,13.883A13.883,13.883,0,1,1,143.988,0a13.883,13.883,0,0,1,13.883,13.883" fill="#232323"/>
    <path id="Path_1198" data-name="Path 1198" d="M101.031,38.6a9.8,9.8,0,0,1,.39-1.05c-.143.34-.275.7-.39,1.05" fill="#242424"/>
    <path id="Path_1199" data-name="Path 1199" d="M125.724,50.7c.246-.367.477-.747.7-1.143-.216.39-.453.776-.7,1.143" fill="#242424"/>
    <path id="Path_1200" data-name="Path 1200" d="M127.367,38.5c-.11-.324-.231-.648-.362-.961.131.314.257.637.362.961" fill="#242424"/>
    <path id="Path_1201" data-name="Path 1201" d="M101.029,38.6c.117-.35.25-.7.391-1.05a10.024,10.024,0,0,0-.391,1.05m24.694,12.1c.247-.367.483-.752.7-1.142q-.33.593-.7,1.142M127,37.534c.128.313.25.637.36.961-.1-.324-.232-.648-.36-.961" fill="#f2d7c2"/>
    <path id="Path_1202" data-name="Path 1202" d="M128.1,42.938c0,.2,0,.4-.01.593a1.009,1.009,0,0,1-.013.2c-.01.187-.026.373-.043.56a13.955,13.955,0,0,1-.23,1.521c-.045.2-.089.4-.138.588-.044.164-.087.323-.136.483-.023.082-.051.175-.077.248-.039.137-.09.275-.133.406l-.016.044c-.033.088-.061.175-.1.264s-.088.229-.137.35-.092.231-.148.35-.1.231-.154.35a3.466,3.466,0,0,1-.165.335c-.054.11-.11.22-.175.328v.018c-.22.4-.451.774-.7,1.143-.092.142-.192.28-.3.416s-.192.259-.3.385-.224.285-.35.422a.178.178,0,0,1-.028.038.3.3,0,0,0-.028.034c-.066.077-.131.148-.2.22s-.126.142-.2.214a2.2,2.2,0,0,1-.16.175,6,6,0,0,1-.449.439c-.083.087-.175.164-.259.247l-.291.246c-.072.062-.144.121-.22.175s-.148.116-.219.175a.534.534,0,0,1-.044.039c-.11.082-.221.165-.331.241-.082.067-.164.126-.252.188-.121.082-.241.164-.367.241s-.3.193-.445.28c-.22.131-.439.252-.665.373-.049.023-.092.049-.143.072-.1.054-.208.1-.313.154-.363.175-.73.329-1.11.472-.142.054-.285.1-.427.149s-.3.1-.457.142-.3.094-.455.133a.806.806,0,0,1-.1.021l-.066.016c-.142.038-.285.071-.432.1H117.1c-.1.023-.193.039-.291.056s-.164.032-.253.044c-.111.024-.222.042-.335.055-.175.028-.362.054-.544.071h-.072c-.136.016-.28.028-.416.034s-.231.015-.35.02c-.208.013-.423.018-.637.018s-.429,0-.637-.018c-.115,0-.231-.01-.341-.02a4.126,4.126,0,0,1-.516-.044.326.326,0,0,1-.077-.012,4.005,4.005,0,0,1-.45-.055.448.448,0,0,1-.082-.01h-.023c-.224-.039-.45-.077-.669-.121a.314.314,0,0,0-.061-.012c-.434-.093-.857-.2-1.274-.334-.164-.05-.336-.106-.5-.165-.1-.033-.2-.072-.3-.11-.247-.093-.488-.193-.732-.308-.147-.06-.29-.126-.439-.2-.388-.191-.773-.406-1.148-.632-.175-.1-.35-.219-.525-.334s-.324-.226-.483-.341c-.033-.027-.072-.049-.1-.076l-.1-.084c-.116-.087-.236-.175-.35-.267l-.1-.089c-.077-.065-.149-.127-.221-.191a4.046,4.046,0,0,1-.313-.287.3.3,0,0,1-.049-.044,1.483,1.483,0,0,1-.137-.126c-.017-.016-.028-.033-.045-.049-.126-.117-.247-.237-.362-.362a1.6,1.6,0,0,1-.121-.126c-.126-.133-.247-.265-.35-.4-.011-.017-.026-.028-.039-.045-.077-.088-.154-.175-.224-.273a1.492,1.492,0,0,1-.11-.139c-.082-.092-.154-.192-.231-.29-.136-.187-.269-.369-.395-.56-.093-.133-.175-.269-.265-.408-.049-.077-.1-.154-.141-.229-.067-.1-.126-.215-.188-.326a4.029,4.029,0,0,1-.2-.378c-.087-.159-.175-.318-.246-.482s-.16-.351-.231-.526a12.186,12.186,0,0,1-.473-1.284c-.072-.214-.131-.434-.187-.66-.049-.191-.1-.383-.137-.575v-.029c-.043-.224-.089-.454-.127-.68l-.016-.1c-.033-.226-.06-.447-.082-.671-.016-.175-.034-.35-.039-.524a.262.262,0,0,1,0-.056c0-.071-.01-.142-.01-.214a.157.157,0,0,1,0-.061c0-.186-.011-.378-.011-.571s0-.341.011-.511v-.033a2.84,2.84,0,0,1,.017-.306,3.957,3.957,0,0,1,.033-.452,1.556,1.556,0,0,1,.016-.159c.023-.208.049-.417.077-.619.028-.16.054-.319.082-.473a.1.1,0,0,1,.011-.038c.017-.1.033-.188.056-.287.033-.175.077-.34.115-.5l.116-.414c.049-.174.1-.362.164-.542q.174-.525.391-1.05v-.016l.231-.511c.077-.159.159-.323.241-.483.065-.133.137-.264.214-.395a.347.347,0,0,1,.033-.067c.016-.028.033-.054.044-.077l.049-.082c.049-.093.105-.175.164-.275a.134.134,0,0,0,.018-.028c.208-.339.434-.663.67-.981s.472-.611.73-.9c.087-.106.187-.209.28-.308.061-.06.115-.121.175-.175s.11-.116.164-.167c.1-.1.214-.208.324-.311.164-.152.336-.306.506-.445.218-.185.444-.367.675-.537.131-.1.27-.2.406-.292.175-.121.35-.242.539-.35q.213-.135.429-.254c.1-.06.2-.116.3-.175.138-.077.275-.149.413-.215.082-.044.175-.082.252-.121.175-.082.341-.159.511-.229.126-.056.262-.111.4-.159a.708.708,0,0,1,.077-.028,1.432,1.432,0,0,1,.175-.067,1.805,1.805,0,0,1,.175-.06c.154-.055.308-.1.462-.153.175-.056.363-.111.545-.154a.452.452,0,0,1,.082-.023c.142-.039.285-.07.434-.1s.29-.067.439-.095.3-.06.455-.082c.056-.011.116-.016.175-.026.147-.023.3-.039.45-.056a1.556,1.556,0,0,1,.236-.021c.137-.018.27-.028.406-.034.1-.01.208-.017.319-.022.2,0,.39-.011.588-.011.225,0,.449,0,.67.016a2.991,2.991,0,0,1,.318.023l.252.015a.289.289,0,0,1,.077.013,1.993,1.993,0,0,1,.259.026c.137.012.28.028.417.051s.226.031.341.054a.1.1,0,0,1,.054.01c.16.023.319.056.473.09l.044.01c.192.039.379.082.567.131s.427.116.642.175a13.613,13.613,0,0,1,1.34.494c.165.072.329.143.494.22l.136.065c.175.082.331.165.49.254l.065.033c.175.1.35.2.516.3a1.028,1.028,0,0,0,.1.061c.175.1.341.214.506.329s.367.252.542.39.35.268.525.412.335.285.5.434.324.3.483.462.313.318.462.483a.129.129,0,0,1,.033.033c.137.154.27.306.4.465a12.51,12.51,0,0,1,.8,1.066l.011.018c.1.141.192.285.28.434a1.946,1.946,0,0,1,.133.213c.01.016.021.033.033.049.026.044.049.087.075.133.084.142.161.285.237.434a.325.325,0,0,1,.038.065,1.48,1.48,0,0,1,.067.138c.054.1.105.2.148.3.088.192.175.385.263.583.133.313.254.637.364.96.01.044.026.083.038.121.049.154.1.308.142.467a.21.21,0,0,0,.023.065.729.729,0,0,1,.021.095c.044.141.077.29.115.439.034.126.062.259.1.39.016.088.031.175.049.257a.045.045,0,0,1,0,.023c.033.175.059.35.087.525s.049.324.062.488c.01.072.021.144.026.216.023.208.038.416.051.626v.059q.015.332.015.671" fill="#232323"/>
    <path id="Path_1203" data-name="Path 1203" d="M136.038,81.345v32.163H93.4V81.345c0-.25,0-.5.017-.751,0-.136.011-.276.021-.411s.011-.236.023-.35c.011-.184.026-.369.049-.551.011-.131.028-.264.044-.394a.375.375,0,0,1,.01-.105c.023-.149.039-.3.067-.446a1.451,1.451,0,0,1,.028-.175c.033-.208.065-.418.108-.625.023-.121.051-.247.077-.367l.083-.371a.888.888,0,0,1,.022-.1c.023-.095.044-.186.072-.279.011-.035.016-.066.028-.1.026-.126.06-.254.1-.378.131-.473.285-.947.455-1.409.072-.193.144-.376.221-.564s.154-.372.231-.556c.01-.021.015-.044.028-.067s.043-.1.069-.152c.062-.143.134-.287.2-.434s.139-.292.216-.434q.255-.5.544-.987.182-.315.378-.623c.093-.152.193-.3.291-.443.159-.238.325-.474.5-.7.11-.152.226-.3.35-.455.054-.077.115-.148.175-.225.143-.175.28-.34.428-.506s.319-.362.484-.525c.082-.093.164-.175.252-.264s.175-.175.253-.256c.34-.341.7-.672,1.061-.989.175-.159.367-.315.56-.462s.35-.269.525-.407c.208-.153.416-.307.637-.448s.428-.3.653-.434c.192-.121.39-.242.588-.359.11-.065.22-.126.329-.193l.308-.162c.1-.058.215-.116.318-.176.138-.069.275-.141.413-.2.411-.2.835-.389,1.262-.56.28-.109.567-.212.852-.312h.016c.143-.052.287-.1.434-.148s.292-.093.439-.13.3-.089.446-.126.3-.079.45-.115.252-.069.378-.093c.175-.041.35-.077.525-.11a.039.039,0,0,0,.026,0c.149-.028.3-.055.445-.077.21-.037.418-.067.626-.093a4.462,4.462,0,0,1,.452-.054c.406-.049.817-.083,1.235-.106.131-.012.27-.015.406-.015.2,0,.406-.011.609-.011h3.038c.291,0,.583,0,.875.02.219,0,.434.022.648.04.105,0,.21.017.313.026.254.023.511.049.758.084.133.016.264.033.395.054a.045.045,0,0,1,.028,0c.154.021.314.044.467.07.077.018.154.026.231.044l.065.018c.221.038.445.087.66.134.329.077.658.161.983.256.237.063.466.134.7.211.274.09.549.19.819.287.175.067.362.139.542.216a.548.548,0,0,1,.1.038c.252.1.506.212.752.333s.457.215.676.331c.164.082.324.174.488.257s.319.175.478.271.313.175.472.283.308.193.463.3c.187.121.367.25.549.376l.066.049c.2.144.394.291.587.44.159.124.318.252.478.379.428.35.841.723,1.237,1.113.114.112.224.226.334.335a20.262,20.262,0,0,1,1.775,2.084c.07.093.141.192.208.29.313.435.6.875.875,1.336l.044.077c.092.152.175.306.264.46a21.1,21.1,0,0,1,.95,1.955c.049.12.1.241.142.369.072.175.138.35.2.525s.121.338.175.507c.038.111.072.219.1.329a.106.106,0,0,1,.012.042c.049.149.093.293.132.44l.033.12c.066.228.121.448.175.672s.1.422.143.636a.96.96,0,0,0,.021.117c.039.2.077.4.111.6.022.127.043.252.061.385s.038.253.049.383.038.29.049.441v.038c.023.209.038.412.056.622s.026.439.033.663c0,.121.011.247.011.369v.371" fill="#232323"/>
    <path id="Path_1204" data-name="Path 1204" d="M22.841,158.035H19.8A19.8,19.8,0,0,0,0,177.837V210H42.642V177.837A19.8,19.8,0,0,0,22.841,158.035Z" fill="#232323"/>
    <path id="Path_1205" data-name="Path 1205" d="M34.7,139.428a13.883,13.883,0,1,1-13.883-13.883A13.883,13.883,0,0,1,34.7,139.428" fill="#232323"/>
    <path id="Path_1206" data-name="Path 1206" d="M25.86,191.915,56.284,122.39l17.648,14.247L49.35,165.461Z" fill="#ff0023"/>
    <path id="Path_1207" data-name="Path 1207" d="M109.494,95.329l-30.426,69.52L61.425,150.608,86,121.785Z" fill="#ff0023"/>
    <path id="Path_1208" data-name="Path 1208" d="M117.95,81.337l-2.975,24.106-2.712-14.912-14.575,4.2Z" fill="#ff0023"/>
  </g>
</svg>
